<svg viewBox="0 0 256 256" xmlns="http://www.w3.org/2000/svg">
  <defs>
    <!-- Dynamic gradients inspired by Firefox logo -->
    <linearGradient id="wolfGradient1" x1="70%" y1="10%" x2="30%" y2="90%">
      <stop offset="0%" style="stop-color:#c5e645;stop-opacity:1" />
      <stop offset="30%" style="stop-color:#a5cf4c;stop-opacity:1" />
      <stop offset="60%" style="stop-color:#7aa030;stop-opacity:1" />
      <stop offset="100%" style="stop-color:#5a7621;stop-opacity:1" />
    </linearGradient>
    
    <linearGradient id="wolfGradient2" x1="20%" y1="20%" x2="80%" y2="80%">
      <stop offset="0%" style="stop-color:#a5cf4c;stop-opacity:1" />
      <stop offset="50%" style="stop-color:#8ab539;stop-opacity:1" />
      <stop offset="100%" style="stop-color:#5a7621;stop-opacity:1" />
    </linearGradient>
    
    <radialGradient id="wolfRadial" cx="45%" cy="45%">
      <stop offset="0%" style="stop-color:#d4f04e;stop-opacity:1" />
      <stop offset="40%" style="stop-color:#a5cf4c;stop-opacity:1" />
      <stop offset="100%" style="stop-color:#4a5f1c;stop-opacity:1" />
    </radialGradient>
    
    <!-- Shadow filter -->
    <filter id="wolfShadow" x="-50%" y="-50%" width="200%" height="200%">
      <feGaussianBlur in="SourceAlpha" stdDeviation="3"/>
      <feOffset dx="0" dy="2" result="offsetblur"/>
      <feFlood flood-color="#000000" flood-opacity="0.2"/>
      <feComposite in2="offsetblur" operator="in"/>
      <feMerge>
        <feMergeNode/>
        <feMergeNode in="SourceGraphic"/>
      </feMerge>
    </filter>
    
    <!-- Inner glow -->
    <filter id="innerGlow">
      <feGaussianBlur stdDeviation="4" result="coloredBlur"/>
      <feMerge>
        <feMergeNode in="coloredBlur"/>
        <feMergeNode in="SourceGraphic"/>
      </feMerge>
    </filter>
  </defs>
  
  <g transform="translate(128, 128)">
    <!-- Outer flowing tail/mane - creates circular motion -->
    <path d="M -20 -80 
             C -60 -90, -90 -60, -85 -20
             C -85 20, -70 60, -40 80
             C -10 95, 30 95, 60 80
             C 85 65, 95 35, 90 0
             C 85 -40, 70 -70, 40 -85
             C 20 -92, -5 -88, -20 -80"
          fill="url(#wolfGradient2)" 
          opacity="0.9"
          filter="url(#wolfShadow)" />
    
    <!-- Mid layer - wolf body silhouette -->
    <path d="M 0 -65
             C -15 -75, -30 -70, -40 -55
             C -50 -40, -55 -20, -50 0
             C -45 25, -30 45, -10 50
             C 10 52, 30 45, 40 25
             C 48 5, 48 -20, 40 -40
             C 30 -60, 15 -70, 0 -65"
          fill="url(#wolfRadial)" 
          filter="url(#innerGlow)" />
    
    <!-- Inner layer - head details -->
    <g transform="translate(0, -20)">
      <!-- Snout -->
      <path d="M -15 10
               C -18 5, -18 -5, -12 -10
               C -8 -12, -4 -12, 0 -10
               C 4 -12, 8 -12, 12 -10
               C 18 -5, 18 5, 15 10
               C 12 15, 8 18, 0 20
               C -8 18, -12 15, -15 10"
            fill="url(#wolfGradient1)" />
      
      <!-- Ears with flowing style -->
      <path d="M -20 -30
               C -25 -45, -22 -50, -15 -48
               C -10 -46, -8 -40, -10 -35
               L -15 -32 Z"
            fill="url(#wolfGradient1)" />
      
      <path d="M 20 -30
               C 25 -45, 22 -50, 15 -48
               C 10 -46, 8 -40, 10 -35
               L 15 -32 Z"
            fill="url(#wolfGradient1)" />
    </g>
    
    <!-- Dynamic flowing elements -->
    <path d="M 30 -60
             C 50 -65, 70 -55, 75 -35
             C 78 -20, 72 -5, 60 5
             C 65 -10, 65 -25, 55 -40
             C 45 -52, 35 -57, 30 -60"
          fill="url(#wolfGradient2)" 
          opacity="0.7" />
    
    <path d="M -30 60
             C -45 65, -60 60, -65 45
             C -68 30, -62 15, -50 10
             C -55 20, -55 35, -45 45
             C -35 53, -30 58, -25 60"
          fill="url(#wolfGradient2)" 
          opacity="0.7" />
    
    <!-- Eye highlights for life -->
    <g filter="url(#innerGlow)">
      <circle cx="-12" cy="-25" r="3" fill="#ffffff" opacity="0.9" />
      <circle cx="12" cy="-25" r="3" fill="#ffffff" opacity="0.9" />
      <circle cx="-12" cy="-25" r="1.5" fill="#1a1a1a" />
      <circle cx="12" cy="-25" r="1.5" fill="#1a1a1a" />
    </g>
    
    <!-- Subtle nose -->
    <ellipse cx="0" cy="-15" rx="2" ry="3" fill="#2a3a1a" opacity="0.8" />
  </g>
</svg>