<svg viewBox="0 0 200 200" xmlns="http://www.w3.org/2000/svg">
  <defs>
    <!-- Campbell & Co. brand gradient -->
    <linearGradient id="wolfGradient" x1="0%" y1="0%" x2="100%" y2="100%">
      <stop offset="0%" style="stop-color:#b8dd52;stop-opacity:1" />
      <stop offset="30%" style="stop-color:#a5cf4c;stop-opacity:1" />
      <stop offset="70%" style="stop-color:#7aa030;stop-opacity:1" />
      <stop offset="100%" style="stop-color:#5a7621;stop-opacity:1" />
    </linearGradient>
    
    <!-- Shadow filter -->
    <filter id="wolfShadow" x="-50%" y="-50%" width="200%" height="200%">
      <feGaussianBlur in="SourceAlpha" stdDeviation="2"/>
      <feOffset dx="0" dy="2" result="offsetblur"/>
      <feFlood flood-color="#000000" flood-opacity="0.25"/>
      <feComposite in2="offsetblur" operator="in"/>
      <feMerge>
        <feMergeNode/>
        <feMergeNode in="SourceGraphic"/>
      </feMerge>
    </filter>
  </defs>
  
  <!-- Exact howling wolf silhouette based on the provided noun project images -->
  <g transform="translate(100, 100)" filter="url(#wolfShadow)">
    <!-- Main body and head -->
    <path d="
      M 25 45
      L 25 30
      C 25 20, 20 10, 10 5
      C 0 0, -10 -5, -20 -10
      L -30 -15
      C -35 -18, -38 -22, -40 -28
      L -42 -35
      C -43 -40, -42 -45, -38 -48
      C -34 -51, -28 -52, -22 -50
      L -15 -48
      C -10 -46, -6 -42, -4 -36
      C -2 -30, -2 -24, -4 -18
      L -6 -12
      C -8 -6, -12 0, -18 4
      L -25 8
      C -30 10, -35 10, -40 8
      C -45 6, -48 2, -50 -3
      L -52 -8
      C -54 -13, -54 -18, -52 -23
      C -50 -28, -46 -32, -40 -34
      L -35 -36
      C -30 -38, -24 -38, -18 -36
      C -12 -34, -8 -30, -6 -24
      L -4 -18
      C -2 -12, -2 -6, -4 0
      C -6 6, -10 12, -16 16
      L -22 20
      C -28 24, -34 26, -40 26
      C -46 26, -52 24, -57 20
      L -62 16
      C -67 12, -70 6, -72 0
      C -74 -6, -74 -12, -72 -18
      L -70 -24
      C -68 -30, -64 -35, -58 -38
      C -52 -41, -45 -42, -38 -41
      L -31 -40
      C -24 -39, -18 -36, -13 -31
      L -8 -26
      C -3 -21, 0 -15, 0 -8
      C 0 -1, -3 5, -8 10
      L -13 15
      C -18 20, -25 23, -33 24
      L -41 25
      C -49 26, -57 24, -64 20
      C -71 16, -76 10, -79 2
      L -82 -6
      C -85 -14, -85 -23, -82 -31
      C -79 -39, -73 -46, -65 -50
      L -57 -54
      C -49 -58, -40 -59, -31 -57
      C -22 -55, -14 -51, -7 -45
      L 0 -39
      C 7 -33, 12 -25, 15 -16
      L 18 -7
      C 21 2, 21 12, 18 21
      L 15 30
      C 12 39, 7 45, 0 45
      L -10 45
      L -10 50
      L 0 50
      C 5 50, 10 48, 10 45
      C 10 42, 5 40, 0 40
      L -10 40
      L -10 45
      
      M 0 40
      L 0 50
      L 10 50
      C 15 50, 20 48, 20 45
      C 20 42, 15 40, 10 40
      L 0 40
      
      M 10 40
      L 10 50
      L 20 50
      C 25 50, 30 48, 30 45
      C 30 42, 25 40, 20 40
      L 10 40
      
      M 20 40
      L 20 50
      L 30 50
      C 35 50, 40 48, 40 45
      C 40 42, 35 40, 30 40
      L 20 40
      L 25 45
      Z
    " fill="url(#wolfGradient)" />
    
    <!-- Tail -->
    <path d="
      M -70 0
      C -75 -5, -80 -8, -85 -8
      C -90 -8, -95 -5, -98 0
      C -101 5, -101 12, -98 18
      C -95 24, -90 28, -84 30
      C -78 32, -72 32, -66 30
      C -60 28, -55 24, -52 18
      C -49 12, -49 5, -52 0
      C -55 -5, -60 -8, -66 -8
      C -68 -8, -69 -7, -70 -5
      L -70 0
      Z
    " fill="url(#wolfGradient)" />
  </g>
</svg>