<svg viewBox="0 0 320 200" xmlns="http://www.w3.org/2000/svg">
  <defs>
    <!-- Campbell & Co. brand gradients -->
    <linearGradient id="wolfGradient" x1="0%" y1="0%" x2="100%" y2="100%">
      <stop offset="0%" style="stop-color:#b8dd52;stop-opacity:1" />
      <stop offset="30%" style="stop-color:#a5cf4c;stop-opacity:1" />
      <stop offset="70%" style="stop-color:#7aa030;stop-opacity:1" />
      <stop offset="100%" style="stop-color:#5a7621;stop-opacity:1" />
    </linearGradient>
    
    <!-- Professional shadow -->
    <filter id="wolfShadow" x="-50%" y="-50%" width="200%" height="200%">
      <feGaussianBlur in="SourceAlpha" stdDeviation="3"/>
      <feOffset dx="0" dy="4" result="offsetblur"/>
      <feFlood flood-color="#000000" flood-opacity="0.3"/>
      <feComposite in2="offsetblur" operator="in"/>
      <feMerge>
        <feMergeNode/>
        <feMergeNode in="SourceGraphic"/>
      </feMerge>
    </filter>
  </defs>
  
  <!-- Wolf silhouette based on reference - standing proud, howling pose -->
  <g transform="translate(160, 100)">
    <path d="
      M -75 -40
      C -80 -45, -82 -52, -78 -58
      C -74 -62, -68 -63, -63 -60
      L -58 -56
      C -55 -54, -52 -53, -48 -53
      C -44 -53, -40 -54, -36 -56
      C -32 -58, -27 -59, -22 -58
      C -17 -57, -12 -55, -8 -52
      L -4 -48
      C 0 -44, 4 -39, 6 -33
      C 8 -27, 8 -21, 6 -15
      L 4 -9
      C 2 -3, 0 3, 0 9
      C 0 15, 2 21, 6 26
      L 10 30
      C 14 34, 20 36, 26 36
      C 32 36, 38 34, 42 30
      L 46 26
      C 50 22, 52 16, 52 10
      C 52 4, 50 -2, 46 -8
      L 42 -14
      C 38 -20, 32 -24, 24 -26
      C 16 -28, 8 -28, 0 -26
      L -8 -24
      C -16 -22, -24 -18, -30 -12
      L -36 -6
      C -42 0, -46 8, -48 16
      C -50 24, -50 32, -48 40
      L -46 48
      C -44 56, -40 62, -34 66
      C -28 70, -20 72, -12 72
      L -4 72
      C 4 72, 12 70, 18 66
      L 24 62
      C 30 58, 34 52, 36 44
      L 38 36
      C 40 28, 40 20, 38 12
      L 36 4
      C 34 -4, 30 -12, 24 -18
      L 18 -24
      C 12 -30, 4 -34, -4 -36
      C -12 -38, -20 -38, -28 -36
      L -36 -34
      C -44 -32, -52 -28, -58 -22
      L -64 -16
      C -70 -10, -74 -2, -76 6
      C -78 14, -78 22, -76 30
      L -74 38
      C -72 46, -68 52, -62 56
      C -56 60, -48 62, -40 62
      L -32 62
      C -24 62, -16 60, -10 56
      L -4 52
      C 2 48, 6 42, 8 34
      L 10 26
      C 12 18, 12 10, 10 2
      L 8 -6
      C 6 -14, 2 -22, -4 -28
      L -10 -34
      C -16 -40, -24 -44, -34 -46
      C -44 -48, -54 -48, -64 -46
      L -75 -44
      C -75 -42, -75 -41, -75 -40
      Z
      
      M -40 62
      L -40 85
      C -40 88, -38 90, -35 90
      C -32 90, -30 88, -30 85
      L -30 62
      
      M -10 62
      L -10 85
      C -10 88, -8 90, -5 90
      C -2 90, 0 88, 0 85
      L 0 62
      
      M 20 62
      L 20 85
      C 20 88, 22 90, 25 90
      C 28 90, 30 88, 30 85
      L 30 62
      
      M 44 48
      L 44 85
      C 44 88, 46 90, 49 90
      C 52 90, 54 88, 54 85
      L 54 48
      
      M -76 30
      C -82 35, -88 38, -94 38
      C -100 38, -106 35, -110 30
      C -114 25, -116 18, -116 10
      C -116 2, -114 -5, -110 -10
      C -106 -15, -100 -18, -94 -18
      C -88 -18, -82 -15, -78 -10
      C -74 -5, -72 2, -72 10
      C -72 18, -74 25, -78 30
      L -76 30
      Z
    " fill="url(#wolfGradient)" filter="url(#wolfShadow)" />
  </g>
</svg>