<svg xmlns="http://www.w3.org/2000/svg" viewBox="0 0 64 64" fill="none">
  <defs>
    <linearGradient id="wolfGrad" x1="0%" y1="0%" x2="100%" y2="100%">
      <stop offset="0%" style="stop-color:#a5cf4c;stop-opacity:1" />
      <stop offset="100%" style="stop-color:#7ea838;stop-opacity:1" />
    </linearGradient>
  </defs>
  <!-- Wolf head silhouette -->
  <path d="M32 8c-2 0-4 0.5-5.5 1.5l-4 2.5c-1 0.5-2 1-2.5 2l-3 4c-0.5 1-1 2-1 3v4c0 1 0.5 2 1 3l2 3c0.5 1 1 1.5 2 2l3 2c1 0.5 2 1 3 1h2l-2 6c-0.5 1.5-1 3-1 4.5v3c0 1.5 0.5 3 1.5 4l2 2.5c1 1 2 1.5 3.5 1.5h6c1.5 0 2.5-0.5 3.5-1.5l2-2.5c1-1 1.5-2.5 1.5-4v-3c0-1.5-0.5-3-1-4.5l-2-6h2c1 0 2-0.5 3-1l3-2c1-0.5 1.5-1 2-2l2-3c0.5-1 1-2 1-3v-4c0-1-0.5-2-1-3l-3-4c-0.5-1-1.5-1.5-2.5-2l-4-2.5c-1.5-1-3.5-1.5-5.5-1.5z" fill="url(#wolfGrad)"/>
  <!-- Eye -->
  <circle cx="24" cy="24" r="2" fill="#fff"/>
  <circle cx="40" cy="24" r="2" fill="#fff"/>
  <!-- Snout detail -->
  <path d="M32 30c-1 0-2 0.5-2.5 1l-1 1.5c-0.5 0.5-0.5 1-0.5 1.5s0 1 0.5 1.5l1 1.5c0.5 0.5 1.5 1 2.5 1s2-0.5 2.5-1l1-1.5c0.5-0.5 0.5-1 0.5-1.5s0-1-0.5-1.5l-1-1.5c-0.5-0.5-1.5-1-2.5-1z" fill="#2c3e50"/>
  <!-- Ears -->
  <path d="M18 12l-6-6c-0.5-0.5-1-0.5-1.5 0s-0.5 1 0 1.5l4 8c0.5 1 1.5 1.5 2.5 1h1c0.5 0 1-0.5 1-1v-1c0-1-0.5-2-1-2.5z" fill="url(#wolfGrad)"/>
  <path d="M46 12l6-6c0.5-0.5 1-0.5 1.5 0s0.5 1 0 1.5l-4 8c-0.5 1-1.5 1.5-2.5 1h-1c-0.5 0-1-0.5-1-1v-1c0-1 0.5-2 1-2.5z" fill="url(#wolfGrad)"/>
</svg>